<?xml version="1.0" encoding="utf-8"?>
<svg version="1.1" xmlns:xlink="http://www.w3.org/1999/xlink" width="30px" height="30px" xmlns="http://www.w3.org/2000/svg">
  <defs>
    <filter x="995px" y="73px" width="30px" height="30px" filterUnits="userSpaceOnUse" id="filter100">
      <feOffset dx="1" dy="1" in="SourceAlpha" result="shadowOffsetInner" />
      <feGaussianBlur stdDeviation="2.5" in="shadowOffsetInner" result="shadowGaussian" />
      <feComposite in2="shadowGaussian" operator="atop" in="SourceAlpha" result="shadowComposite" />
      <feColorMatrix type="matrix" values="0 0 0 0 0  0 0 0 0 0  0 0 0 0 0  0 0 0 0.698039215686274 0  " in="shadowComposite" />
    </filter>
    <g id="widget101">
      <path d="M 1009 77  C 1014.6 77  1019 81.4  1019 87  C 1019 92.6  1014.6 97  1009 97  C 1003.4 97  999 92.6  999 87  C 999 81.4  1003.4 77  1009 77  Z " fill-rule="nonzero" fill="#d9001b" stroke="none" />
      <path d="M 1009 77.5  C 1014.32 77.5  1018.5 81.68  1018.5 87  C 1018.5 92.32  1014.32 96.5  1009 96.5  C 1003.68 96.5  999.5 92.32  999.5 87  C 999.5 81.68  1003.68 77.5  1009 77.5  Z " stroke-width="1" stroke="#ffffff" fill="none" />
    </g>
  </defs>
  <g transform="matrix(1 0 0 1 -995 -73 )">
    <use xlink:href="#widget101" filter="url(#filter100)" />
    <use xlink:href="#widget101" />
  </g>
</svg>