<?xml version="1.0" encoding="utf-8"?>
<svg version="1.1" xmlns:xlink="http://www.w3.org/1999/xlink" width="20px" height="15px" xmlns="http://www.w3.org/2000/svg">
  <g transform="matrix(1 0 0 1 -12 -67 )">
    <path d="M 18.4704033525406 8.97017045454544  C 18.5961236249345 8.81392045454547  18.6589837611315 8.67542613636365  18.6589837611315 8.55468750000001  C 18.6589837611315 8.30610795454546  18.4738955823293 8.18181818181817  18.103719224725 8  L 6.70508119434258 8  C 6.42570281124497 8.18181818181817  6.12711716430941 8.25816761363636  5.80932425353588 8.41086647727274  C 5.49153134276236 8.5635653409091  5.24183691286886 8.74999999999999  5.06024096385542 8.97017045454544  L 1.98009429020429 12.8373579545454  C 1.85437401781037 13.0078125  1.79151388161341 13.1498579545455  1.79151388161341 13.2634943181818  C 1.79151388161341 13.5120738636363  1.97660206041557 13.6363636363636  2.34677841801991 13.6363636363636  L 13.7454164484023 13.6363636363636  C 14.0247948314999 13.6363636363636  14.3251265933299 13.5582386363637  14.6464117338921 13.4019886363636  C 14.9676968744543 13.2457386363636  15.2156451894535 13.0575284090909  15.3902566788895 12.8373579545454  L 18.4704033525406 8.97017045454544  Z M 5.23834468308014 7.18572443181817  C 5.74122577265584 6.94069602272727  6.23013794307666 6.81818181818181  6.70508119434258 6.81818181818181  L 14.7511786275537 6.81818181818181  L 14.7511786275537 5.11363636363638  C 14.7511786275537 4.82954545454547  14.6533961934695 4.58806818181818  14.4578313253012 4.38920454545455  C 14.2622664571329 4.1903409090909  14.0247948314999 4.09090909090908  13.7454164484023 4.09090909090908  L 7.71084337349397 4.09090909090908  C 7.43146499039636 4.09090909090908  7.1939933647634 3.99147727272727  6.99842849659508 3.79261363636364  C 6.80286362842675 3.59375000000001  6.70508119434258 3.35227272727273  6.70508119434258 3.06818181818182  L 6.70508119434258 2.38636363636362  C 6.70508119434258 2.10227272727272  6.60729876025843 1.86079545454546  6.4117338920901 1.66193181818183  C 6.21616902392178 1.46306818181818  5.9786973982888 1.36363636363636  5.69931901519121 1.36363636363636  L 2.34677841801991 1.36363636363636  C 2.0674000349223 1.36363636363636  1.82992840928934 1.46306818181818  1.634363541121 1.66193181818183  C 1.43879867295269 1.86079545454546  1.34101623886852 2.10227272727272  1.34101623886852 2.38636363636362  L 1.34101623886852 11.4737215909091  L 4.02304871660556 8.11789772727274  C 4.33036493801292 7.74147727272728  4.73546359350445 7.4307528409091  5.23834468308014 7.18572443181817  Z M 19.8428496595076 7.83025568181818  C 19.9476165531692 8.0575284090909  20 8.29900568181819  20 8.55468750000001  C 20 8.99502840909092  19.8393574297189 9.42116477272727  19.5180722891566 9.83309659090908  L 16.4274489261393 13.7002840909091  C 16.1271171643094 14.0767045454545  15.7220185088179 14.3874289772727  15.2121529596647 14.6324573863636  C 14.7022874105116 14.8774857954546  14.2133752400908 15  13.7454164484023 15  L 2.34677841801991 15  C 1.7042081368954 15  1.15243583027764 14.765625  0.691461498166575 14.296875  C 0.230487166055525 13.828125  0 13.2670454545455  0 12.6136363636363  L 0 2.38636363636362  C 0 1.73295454545455  0.230487166055525 1.171875  0.691461498166575 0.703124999999994  C 1.15243583027764 0.234374999999988  1.7042081368954 0  2.34677841801991 0  L 5.69931901519121 0  C 6.3418892963157 0  6.89366160293348 0.234374999999988  7.35463593504453 0.703124999999994  C 7.81561026715558 1.171875  8.04609743321112 1.73295454545455  8.04609743321112 2.38636363636362  L 8.04609743321112 2.72727272727272  L 13.7454164484023 2.72727272727272  C 14.3879867295268 2.72727272727272  14.9397590361446 2.96164772727274  15.4007333682556 3.43039772727272  C 15.8617077003667 3.89914772727272  16.0921948664222 4.46022727272727  16.0921948664222 5.11363636363638  L 16.0921948664222 6.81818181818181  L 18.103719224725 6.81818181818181  C 18.4808800419067 6.81818181818181  18.8266107909901 6.90518465909091  19.1409114719748 7.07919034090909  C 19.4552121529597 7.25319602272727  19.6891915488039 7.50355113636365  19.8428496595076 7.83025568181818  Z " fill-rule="nonzero" fill="#ffffff" stroke="none" transform="matrix(1 0 0 1 12 67 )" />
  </g>
</svg>