<?xml version="1.0" encoding="utf-8"?>
<svg version="1.1" xmlns:xlink="http://www.w3.org/1999/xlink" width="14px" height="14px" xmlns="http://www.w3.org/2000/svg">
  <g transform="matrix(1 0 0 1 -151 -104 )">
    <path d="M 12.8196614583334 12.8196614583333  C 13.2176649305555 12.4216579861111  13.4166666666666 11.9401041666667  13.4166666666666 11.375  L 13.4166666666666 7  L 7 7  L 7 0.583333333333343  L 2.625 0.583333333333343  C 2.05989583333337 0.583333333333343  1.57834201388886 0.782335069444443  1.18033854166663 1.18033854166666  C 0.782335069444457 1.57834201388889  0.583333333333371 2.05989583333334  0.583333333333371 2.625  L 0.583333333333371 7  L 7 7  L 7 13.4166666666667  L 11.375 13.4166666666667  C 11.9401041666666 13.4166666666667  12.4216579861111 13.2176649305556  12.8196614583334 12.8196614583333  Z M 13.2298177083334 0.770182291666657  C 13.7432725694445 1.28363715277779  14 1.90190972222221  14 2.625  L 14 11.375  C 14 12.0980902777778  13.7432725694445 12.7163628472222  13.2298177083334 13.2298177083333  C 12.7163628472222 13.7432725694444  12.0980902777778 14  11.375 14  L 2.625 14  C 1.90190972222223 14  1.28363715277777 13.7432725694444  0.770182291666629 13.2298177083333  C 0.256727430555543 12.7163628472222  0 12.0980902777778  0 11.375  L 0 2.625  C 0 1.90190972222221  0.256727430555543 1.28363715277779  0.770182291666629 0.770182291666657  C 1.28363715277777 0.256727430555557  1.90190972222223 0  2.625 0  L 11.375 0  C 12.0980902777778 0  12.7163628472222 0.256727430555557  13.2298177083334 0.770182291666657  Z " fill-rule="nonzero" fill="#333333" stroke="none" transform="matrix(1 0 0 1 151 104 )" />
  </g>
</svg>