<?xml version="1.0" encoding="utf-8"?>
<svg version="1.1" xmlns:xlink="http://www.w3.org/1999/xlink" width="25px" height="25px" xmlns="http://www.w3.org/2000/svg">
  <defs>
    <mask fill="white" id="clip246">
      <path d="M 0 7.5  C 0 5.40000000000001  0.825000000000045 3.52500000000001  2.17499999999995 2.175  C 3.52500000000009 0.825000000000003  5.40000000000009 0  7.5 0  C 11.7 0  15 3.3  15 7.5  C 15 11.7  11.7 15  7.5 15  C 3.29999999999995 15  0 11.7  0 7.5  Z " fill-rule="evenodd" />
    </mask>
    <filter x="1032px" y="79px" width="25px" height="25px" filterUnits="userSpaceOnUse" id="filter247">
      <feOffset dx="1" dy="1" in="SourceAlpha" result="shadowOffsetInner" />
      <feGaussianBlur stdDeviation="2.5" in="shadowOffsetInner" result="shadowGaussian" />
      <feComposite in2="shadowGaussian" operator="atop" in="SourceAlpha" result="shadowComposite" />
      <feColorMatrix type="matrix" values="0 0 0 0 0  0 0 0 0 0  0 0 0 0 0  0 0 0 0.698039215686274 0  " in="shadowComposite" />
    </filter>
    <g id="widget248">
      <path d="M 0 7.5  C 0 5.40000000000001  0.825000000000045 3.52500000000001  2.17499999999995 2.175  C 3.52500000000009 0.825000000000003  5.40000000000009 0  7.5 0  C 11.7 0  15 3.3  15 7.5  C 15 11.7  11.7 15  7.5 15  C 3.29999999999995 15  0 11.7  0 7.5  Z " fill-rule="nonzero" fill="#d9001b" stroke="none" transform="matrix(1 0 0 1 1036 83 )" />
      <path d="M 0 7.5  C 0 5.40000000000001  0.825000000000045 3.52500000000001  2.17499999999995 2.175  C 3.52500000000009 0.825000000000003  5.40000000000009 0  7.5 0  C 11.7 0  15 3.3  15 7.5  C 15 11.7  11.7 15  7.5 15  C 3.29999999999995 15  0 11.7  0 7.5  Z " stroke-width="2" stroke="#ffffff" fill="none" transform="matrix(1 0 0 1 1036 83 )" mask="url(#clip246)" />
    </g>
  </defs>
  <g transform="matrix(1 0 0 1 -1032 -79 )">
    <use xlink:href="#widget248" filter="url(#filter247)" />
    <use xlink:href="#widget248" />
  </g>
</svg>