<?xml version="1.0" encoding="utf-8"?>
<svg version="1.1" xmlns:xlink="http://www.w3.org/1999/xlink" width="25px" height="25px" xmlns="http://www.w3.org/2000/svg">
  <g transform="matrix(1 0 0 1 -340 -10 )">
    <path d="M 352.5 10  C 359.5 10  365 15.5  365 22.5  C 365 29.5  359.5 35  352.5 35  C 345.5 35  340 29.5  340 22.5  C 340 15.5  345.5 10  352.5 10  Z " fill-rule="nonzero" fill="#ffffff" stroke="none" />
    <path d="M 352.5 10.5  C 359.22 10.5  364.5 15.78  364.5 22.5  C 364.5 29.22  359.22 34.5  352.5 34.5  C 345.78 34.5  340.5 29.22  340.5 22.5  C 340.5 15.78  345.78 10.5  352.5 10.5  Z " stroke-width="1" stroke="#3f88cc" fill="none" />
  </g>
</svg>