<?xml version="1.0" encoding="utf-8"?>
<svg version="1.1" xmlns:xlink="http://www.w3.org/1999/xlink" width="10px" height="10px" xmlns="http://www.w3.org/2000/svg">
  <g transform="matrix(1 0 0 1 -406 -64 )">
    <path d="M 9.76430976430981 7.47474747474746  C 9.92143658810329 7.63187429854095  10 7.82267115600449  10 8.04713804713805  C 10 8.27160493827161  9.92143658810329 8.46240179573513  9.76430976430981 8.61952861952862  L 8.61952861952864 9.76430976430976  C 8.46240179573516 9.92143658810325  8.27160493827159 10  8.04713804713805 10  C 7.82267115600445 10  7.63187429854099 9.92143658810325  7.47474747474752 9.76430976430976  L 5 7.2895622895623  L 2.52525252525248 9.76430976430976  C 2.36812570145901 9.92143658810325  2.17732884399555 10  1.95286195286195 10  C 1.72839506172841 10  1.53759820426484 9.92143658810325  1.38047138047136 9.76430976430976  L 0.235690235690186 8.61952861952862  C 0.0785634118967096 8.46240179573513  0 8.27160493827161  0 8.04713804713805  C 0 7.82267115600449  0.0785634118967096 7.63187429854095  0.235690235690186 7.47474747474746  L 2.7104377104377 5  L 0.235690235690186 2.52525252525251  C 0.0785634118967096 2.36812570145905  0 2.17732884399551  0 1.95286195286195  C 0 1.72839506172839  0.0785634118967096 1.53759820426487  0.235690235690186 1.38047138047138  L 1.38047138047136 0.235690235690242  C 1.53759820426484 0.0785634118967522  1.72839506172841 0  1.95286195286195 0  C 2.17732884399555 0  2.36812570145901 0.0785634118967522  2.52525252525248 0.235690235690242  L 5 2.7104377104377  L 7.47474747474752 0.235690235690242  C 7.63187429854099 0.0785634118967522  7.82267115600445 0  8.04713804713805 0  C 8.27160493827159 0  8.46240179573516 0.0785634118967522  8.61952861952864 0.235690235690242  L 9.76430976430981 1.38047138047138  C 9.92143658810329 1.53759820426487  10 1.72839506172839  10 1.95286195286195  C 10 2.17732884399551  9.92143658810329 2.36812570145905  9.76430976430981 2.52525252525251  L 7.2895622895623 5  L 9.76430976430981 7.47474747474746  Z " fill-rule="nonzero" fill="#999999" stroke="none" transform="matrix(1 0 0 1 406 64 )" />
  </g>
</svg>