<?xml version="1.0" encoding="utf-8"?>
<svg version="1.1" xmlns:xlink="http://www.w3.org/1999/xlink" width="12px" height="7px" xmlns="http://www.w3.org/2000/svg">
  <g transform="matrix(1 0 0 1 -119 -71 )">
    <path d="M 11.77734375 5.67534722222222  C 11.92578125 5.82928240740741  12 6.01157407407407  12 6.22222222222222  C 12 6.43287037037037  11.92578125 6.61516203703704  11.77734375 6.76909722222222  C 11.62890625 6.92303240740741  11.453125 7  11.25 7  L 0.75 7  C 0.546875 7  0.37109375 6.92303240740741  0.22265625 6.76909722222222  C 0.07421875 6.61516203703704  0 6.43287037037037  0 6.22222222222222  C 0 6.01157407407407  0.07421875 5.82928240740741  0.22265625 5.67534722222222  L 5.47265625 0.230902777777778  C 5.62109375 0.0769675925925917  5.796875 0  6 0  C 6.203125 0  6.37890625 0.0769675925925917  6.52734375 0.230902777777778  L 11.77734375 5.67534722222222  Z " fill-rule="nonzero" fill="#ffffff" stroke="none" transform="matrix(1 0 0 1 119 71 )" />
  </g>
</svg>