<?xml version="1.0" encoding="utf-8"?>
<svg version="1.1" xmlns:xlink="http://www.w3.org/1999/xlink" width="20px" height="20px" xmlns="http://www.w3.org/2000/svg">
  <g transform="matrix(1 0 0 1 -653 -91 )">
    <path d="M 663 91  C 668.6 91  673 95.4  673 101  C 673 106.6  668.6 111  663 111  C 657.4 111  653 106.6  653 101  C 653 95.4  657.4 91  663 91  Z " fill-rule="nonzero" fill="#ffffff" stroke="none" />
    <path d="M 663 91.5  C 668.32 91.5  672.5 95.68  672.5 101  C 672.5 106.32  668.32 110.5  663 110.5  C 657.68 110.5  653.5 106.32  653.5 101  C 653.5 95.68  657.68 91.5  663 91.5  Z " stroke-width="1" stroke="#797979" fill="none" />
  </g>
</svg>