<?xml version="1.0" encoding="utf-8"?>
<svg version="1.1" xmlns:xlink="http://www.w3.org/1999/xlink" width="25px" height="25px" xmlns="http://www.w3.org/2000/svg">
  <defs>
    <filter x="120px" y="108px" width="25px" height="25px" filterUnits="userSpaceOnUse" id="filter102">
      <feOffset dx="1" dy="1" in="SourceAlpha" result="shadowOffsetInner" />
      <feGaussianBlur stdDeviation="2.5" in="shadowOffsetInner" result="shadowGaussian" />
      <feComposite in2="shadowGaussian" operator="atop" in="SourceAlpha" result="shadowComposite" />
      <feColorMatrix type="matrix" values="0 0 0 0 0  0 0 0 0 0  0 0 0 0 0  0 0 0 0.698039215686274 0  " in="shadowComposite" />
    </filter>
    <g id="widget103">
      <path d="M 131.5 112  C 135.7 112  139 115.3  139 119.5  C 139 123.7  135.7 127  131.5 127  C 127.3 127  124 123.7  124 119.5  C 124 115.3  127.3 112  131.5 112  Z " fill-rule="nonzero" fill="#d9001b" stroke="none" />
      <path d="M 131.5 112.5  C 135.42 112.5  138.5 115.58  138.5 119.5  C 138.5 123.42  135.42 126.5  131.5 126.5  C 127.58 126.5  124.5 123.42  124.5 119.5  C 124.5 115.58  127.58 112.5  131.5 112.5  Z " stroke-width="1" stroke="#ffffff" fill="none" />
    </g>
  </defs>
  <g transform="matrix(1 0 0 1 -120 -108 )">
    <use xlink:href="#widget103" filter="url(#filter102)" />
    <use xlink:href="#widget103" />
  </g>
</svg>