<?xml version="1.0" encoding="utf-8"?>
<svg version="1.1" xmlns:xlink="http://www.w3.org/1999/xlink" width="25px" height="25px" xmlns="http://www.w3.org/2000/svg">
  <defs>
    <mask fill="white" id="clip104">
      <path d="M 0 7.5  C 0 3.30000000000001  3.3 0  7.5 0  C 11.7 0  15 3.30000000000001  15 7.5  C 15 9.59999999999999  14.175 11.475  12.825 12.825  C 11.475 14.175  9.59999999999999 15  7.5 15  C 3.3 15  0 11.7  0 7.5  Z " fill-rule="evenodd" />
    </mask>
    <filter x="97px" y="192px" width="25px" height="25px" filterUnits="userSpaceOnUse" id="filter105">
      <feOffset dx="1" dy="1" in="SourceAlpha" result="shadowOffsetInner" />
      <feGaussianBlur stdDeviation="2.5" in="shadowOffsetInner" result="shadowGaussian" />
      <feComposite in2="shadowGaussian" operator="atop" in="SourceAlpha" result="shadowComposite" />
      <feColorMatrix type="matrix" values="0 0 0 0 0  0 0 0 0 0  0 0 0 0 0  0 0 0 0.698039215686274 0  " in="shadowComposite" />
    </filter>
    <g id="widget106">
      <path d="M 0 7.5  C 0 3.30000000000001  3.3 0  7.5 0  C 11.7 0  15 3.30000000000001  15 7.5  C 15 9.59999999999999  14.175 11.475  12.825 12.825  C 11.475 14.175  9.59999999999999 15  7.5 15  C 3.3 15  0 11.7  0 7.5  Z " fill-rule="nonzero" fill="#d9001b" stroke="none" transform="matrix(1 0 0 1 101 196 )" />
      <path d="M 0 7.5  C 0 3.30000000000001  3.3 0  7.5 0  C 11.7 0  15 3.30000000000001  15 7.5  C 15 9.59999999999999  14.175 11.475  12.825 12.825  C 11.475 14.175  9.59999999999999 15  7.5 15  C 3.3 15  0 11.7  0 7.5  Z " stroke-width="2" stroke="#ffffff" fill="none" transform="matrix(1 0 0 1 101 196 )" mask="url(#clip104)" />
    </g>
  </defs>
  <g transform="matrix(1 0 0 1 -97 -192 )">
    <use xlink:href="#widget106" filter="url(#filter105)" />
    <use xlink:href="#widget106" />
  </g>
</svg>