<?xml version="1.0" encoding="utf-8"?>
<svg version="1.1" xmlns:xlink="http://www.w3.org/1999/xlink" width="12px" height="12px" viewBox="20 280.5  12 12" xmlns="http://www.w3.org/2000/svg">
  <path d="M 26 280.5  C 29.36 280.5  32 283.14  32 286.5  C 32 289.86  29.36 292.5  26 292.5  C 22.64 292.5  20 289.86  20 286.5  C 20 283.14  22.64 280.5  26 280.5  Z " fill-rule="nonzero" fill="#ffffff" stroke="none" />
  <path d="M 26 281  C 29.08 281  31.5 283.42  31.5 286.5  C 31.5 289.58  29.08 292  26 292  C 22.92 292  20.5 289.58  20.5 286.5  C 20.5 283.42  22.92 281  26 281  Z " stroke-width="1" stroke="#797979" fill="none" />
  <path d="M 26 289.5  C 24.32 289.5  23 288.18  23 286.5  C 23 284.82  24.32 283.5  26 283.5  C 27.68 283.5  29 284.82  29 286.5  C 29 288.18  27.68 289.5  26 289.5  " fill-rule="nonzero" fill="#797979" stroke="none" />
</svg>