<?xml version="1.0" encoding="utf-8"?>
<svg version="1.1" xmlns:xlink="http://www.w3.org/1999/xlink" width="25px" height="25px" xmlns="http://www.w3.org/2000/svg">
  <defs>
    <mask fill="white" id="clip11">
      <path d="M 0 7.5  C 0 6.74831626556835  0.105702598685355 6.02546051259634  0.303349367637281 5.34519116950287  C 0.303471178019947 5.34477191716991  0.303593023325732 5.34435268101248  0.303714903551452 5.34393346103394  C 1.21080881121918 2.22388764334193  4.05214699969935 0  7.5 0  C 11.7 0  15 3.30000000000001  15 7.5  C 15 11.7  11.7 15  7.5 15  C 3.30000000000001 15  0 11.7  0 7.5  Z " fill-rule="evenodd" />
    </mask>
    <filter x="428px" y="260px" width="25px" height="25px" filterUnits="userSpaceOnUse" id="filter12">
      <feOffset dx="1" dy="1" in="SourceAlpha" result="shadowOffsetInner" />
      <feGaussianBlur stdDeviation="2.5" in="shadowOffsetInner" result="shadowGaussian" />
      <feComposite in2="shadowGaussian" operator="atop" in="SourceAlpha" result="shadowComposite" />
      <feColorMatrix type="matrix" values="0 0 0 0 0  0 0 0 0 0  0 0 0 0 0  0 0 0 0.698039215686274 0  " in="shadowComposite" />
    </filter>
    <g id="widget13">
      <path d="M 0 7.5  C 0 6.74831626556835  0.105702598685355 6.02546051259634  0.303349367637281 5.34519116950287  C 0.303471178019947 5.34477191716991  0.303593023325732 5.34435268101248  0.303714903551452 5.34393346103394  C 1.21080881121918 2.22388764334193  4.05214699969935 0  7.5 0  C 11.7 0  15 3.30000000000001  15 7.5  C 15 11.7  11.7 15  7.5 15  C 3.30000000000001 15  0 11.7  0 7.5  Z " fill-rule="nonzero" fill="#d9001b" stroke="none" transform="matrix(1 0 0 1 432 264 )" />
      <path d="M 0 7.5  C 0 6.74831626556835  0.105702598685355 6.02546051259634  0.303349367637281 5.34519116950287  C 0.303471178019947 5.34477191716991  0.303593023325732 5.34435268101248  0.303714903551452 5.34393346103394  C 1.21080881121918 2.22388764334193  4.05214699969935 0  7.5 0  C 11.7 0  15 3.30000000000001  15 7.5  C 15 11.7  11.7 15  7.5 15  C 3.30000000000001 15  0 11.7  0 7.5  Z " stroke-width="2" stroke="#ffffff" fill="none" transform="matrix(1 0 0 1 432 264 )" mask="url(#clip11)" />
    </g>
  </defs>
  <g transform="matrix(1 0 0 1 -428 -260 )">
    <use xlink:href="#widget13" filter="url(#filter12)" />
    <use xlink:href="#widget13" />
  </g>
</svg>