<?xml version="1.0" encoding="utf-8"?>
<svg version="1.1" xmlns:xlink="http://www.w3.org/1999/xlink" width="25px" height="25px" xmlns="http://www.w3.org/2000/svg">
  <defs>
    <filter x="340px" y="3px" width="25px" height="25px" filterUnits="userSpaceOnUse" id="filter238">
      <feOffset dx="1" dy="1" in="SourceAlpha" result="shadowOffsetInner" />
      <feGaussianBlur stdDeviation="2.5" in="shadowOffsetInner" result="shadowGaussian" />
      <feComposite in2="shadowGaussian" operator="atop" in="SourceAlpha" result="shadowComposite" />
      <feColorMatrix type="matrix" values="0 0 0 0 0  0 0 0 0 0  0 0 0 0 0  0 0 0 0.698039215686274 0  " in="shadowComposite" />
    </filter>
    <g id="widget239">
      <path d="M 351.5 7  C 355.7 7  359 10.3  359 14.5  C 359 18.7  355.7 22  351.5 22  C 347.3 22  344 18.7  344 14.5  C 344 10.3  347.3 7  351.5 7  Z " fill-rule="nonzero" fill="#d9001b" stroke="none" />
      <path d="M 351.5 7.5  C 355.42 7.5  358.5 10.58  358.5 14.5  C 358.5 18.42  355.42 21.5  351.5 21.5  C 347.58 21.5  344.5 18.42  344.5 14.5  C 344.5 10.58  347.58 7.5  351.5 7.5  Z " stroke-width="1" stroke="#ffffff" fill="none" />
    </g>
  </defs>
  <g transform="matrix(1 0 0 1 -340 -3 )">
    <use xlink:href="#widget239" filter="url(#filter238)" />
    <use xlink:href="#widget239" />
  </g>
</svg>