<?xml version="1.0" encoding="utf-8"?>
<svg version="1.1" xmlns:xlink="http://www.w3.org/1999/xlink" width="32px" height="25px" xmlns="http://www.w3.org/2000/svg">
  <g transform="matrix(1 0 0 1 -125 -282 )">
    <path d="M 6.1875 17.5159801136364  C 6.63392857142857 17.0720880681818  6.85714285714286 16.5364583333333  6.85714285714286 15.9090909090909  C 6.85714285714286 15.2817234848485  6.63392857142857 14.74609375  6.1875 14.3022017045455  C 5.74107142857143 13.8583096590909  5.20238095238095 13.6363636363636  4.57142857142857 13.6363636363636  C 3.94047619047619 13.6363636363636  3.40178571428571 13.8583096590909  2.95535714285714 14.3022017045455  C 2.50892857142857 14.74609375  2.28571428571429 15.2817234848485  2.28571428571429 15.9090909090909  C 2.28571428571429 16.5364583333333  2.50892857142857 17.0720880681818  2.95535714285714 17.5159801136364  C 3.40178571428571 17.9598721590909  3.94047619047619 18.1818181818182  4.57142857142857 18.1818181818182  C 5.20238095238095 18.1818181818182  5.74107142857143 17.9598721590909  6.1875 17.5159801136364  Z M 9.61607142857143 9.56143465909091  C 10.0625 9.11754261363637  10.2857142857143 8.58191287878788  10.2857142857143 7.95454545454546  C 10.2857142857143 7.32717803030303  10.0625 6.79154829545454  9.61607142857143 6.34765625  C 9.16964285714286 5.90376420454546  8.63095238095238 5.68181818181818  8 5.68181818181818  C 7.36904761904762 5.68181818181818  6.83035714285714 5.90376420454546  6.38392857142857 6.34765625  C 5.9375 6.79154829545454  5.71428571428571 7.32717803030303  5.71428571428571 7.95454545454546  C 5.71428571428571 8.58191287878788  5.9375 9.11754261363637  6.38392857142857 9.56143465909091  C 6.83035714285714 10.0053267045455  7.36904761904762 10.2272727272727  8 10.2272727272727  C 8.63095238095238 10.2272727272727  9.16964285714286 10.0053267045455  9.61607142857143 9.56143465909091  Z M 19.2142857142857 18.1107954545455  C 18.952380952381 17.4360795454545  18.5238095238095 16.897490530303  17.9285714285714 16.4950284090909  L 19.7321428571429 9.71235795454546  C 19.8035714285714 9.4045928030303  19.7589285714286 9.11754261363637  19.5982142857143 8.85120738636363  C 19.4375 8.58487215909091  19.2083333333333 8.41027462121212  18.9107142857143 8.32741477272727  C 18.6130952380952 8.24455492424242  18.327380952381 8.28302556818182  18.0535714285714 8.44282670454546  C 17.7797619047619 8.60262784090909  17.6011904761905 8.83641098484848  17.5178571428571 9.14417613636363  L 15.7142857142857 15.9268465909091  C 15 15.9860321969697  14.3630952380952 16.2434895833333  13.8035714285714 16.69921875  C 13.2440476190476 17.1549479166667  12.8690476190476 17.7379261363636  12.6785714285714 18.4481534090909  C 12.4404761904762 19.3596117424242  12.5595238095238 20.2237215909091  13.0357142857143 21.0404829545455  C 13.5119047619048 21.8572443181818  14.2083333333333 22.3839962121212  15.125 22.6207386363636  C 16.0416666666667 22.8574810606061  16.9107142857143 22.7391098484849  17.7321428571429 22.265625  C 18.5535714285714 21.7921401515151  19.0833333333333 21.0996685606061  19.3214285714286 20.1882102272727  C 19.5119047619048 19.4779829545455  19.4761904761905 18.7855113636364  19.2142857142857 18.1107954545455  Z M 29.0446428571429 17.5159801136364  C 29.4910714285714 17.0720880681818  29.7142857142857 16.5364583333333  29.7142857142857 15.9090909090909  C 29.7142857142857 15.2817234848485  29.4910714285714 14.74609375  29.0446428571429 14.3022017045455  C 28.5982142857143 13.8583096590909  28.0595238095238 13.6363636363636  27.4285714285714 13.6363636363636  C 26.797619047619 13.6363636363636  26.2589285714286 13.8583096590909  25.8125 14.3022017045455  C 25.3660714285714 14.74609375  25.1428571428571 15.2817234848485  25.1428571428571 15.9090909090909  C 25.1428571428571 16.5364583333333  25.3660714285714 17.0720880681818  25.8125 17.5159801136364  C 26.2589285714286 17.9598721590909  26.797619047619 18.1818181818182  27.4285714285714 18.1818181818182  C 28.0595238095238 18.1818181818182  28.5982142857143 17.9598721590909  29.0446428571429 17.5159801136364  Z M 17.6160714285714 6.15234375  C 18.0625 5.70845170454546  18.2857142857143 5.17282196969697  18.2857142857143 4.54545454545454  C 18.2857142857143 3.91808712121212  18.0625 3.38245738636364  17.6160714285714 2.93856534090909  C 17.1696428571429 2.49467329545454  16.6309523809524 2.27272727272727  16 2.27272727272727  C 15.3690476190476 2.27272727272727  14.8303571428571 2.49467329545454  14.3839285714286 2.93856534090909  C 13.9375 3.38245738636364  13.7142857142857 3.91808712121212  13.7142857142857 4.54545454545454  C 13.7142857142857 5.17282196969697  13.9375 5.70845170454546  14.3839285714286 6.15234375  C 14.8303571428571 6.59623579545454  15.3690476190476 6.81818181818182  16 6.81818181818182  C 16.6309523809524 6.81818181818182  17.1696428571429 6.59623579545454  17.6160714285714 6.15234375  Z M 25.6160714285714 9.56143465909091  C 26.0625 9.11754261363637  26.2857142857143 8.58191287878788  26.2857142857143 7.95454545454546  C 26.2857142857143 7.32717803030303  26.0625 6.79154829545454  25.6160714285714 6.34765625  C 25.1696428571429 5.90376420454546  24.6309523809524 5.68181818181818  24 5.68181818181818  C 23.3690476190476 5.68181818181818  22.8303571428571 5.90376420454546  22.3839285714286 6.34765625  C 21.9375 6.79154829545454  21.7142857142857 7.32717803030303  21.7142857142857 7.95454545454546  C 21.7142857142857 8.58191287878788  21.9375 9.11754261363637  22.3839285714286 9.56143465909091  C 22.8303571428571 10.0053267045455  23.3690476190476 10.2272727272727  24 10.2272727272727  C 24.6309523809524 10.2272727272727  25.1696428571429 10.0053267045455  25.6160714285714 9.56143465909091  Z M 30.7321428571429 9.73011363636363  C 31.577380952381 11.6950757575758  32 13.7547348484848  32 15.9090909090909  C 32 18.9985795454545  31.1607142857143 21.8572443181818  29.4821428571429 24.4850852272727  C 29.2559523809524 24.8283617424242  28.9345238095238 25  28.5178571428571 25  L 3.48214285714286 25  C 3.06547619047619 25  2.74404761904762 24.8283617424242  2.51785714285714 24.4850852272727  C 0.839285714285714 21.8690814393939  0 19.0104166666667  0 15.9090909090909  C 0 13.7547348484848  0.422619047619048 11.6950757575758  1.26785714285714 9.73011363636363  C 2.11309523809524 7.76515151515151  3.25 6.07244318181818  4.67857142857143 4.65198863636363  C 6.10714285714286 3.23153409090909  7.80952380952381 2.10108901515151  9.78571428571429 1.26065340909091  C 11.7619047619048 0.420217803030301  13.8333333333333 0  16 0  C 18.1666666666667 0  20.2380952380952 0.420217803030301  22.2142857142857 1.26065340909091  C 24.1904761904762 2.10108901515151  25.8928571428571 3.23153409090909  27.3214285714286 4.65198863636363  C 28.75 6.07244318181818  29.8869047619048 7.76515151515151  30.7321428571429 9.73011363636363  Z " fill-rule="nonzero" fill="#7f7f7f" stroke="none" transform="matrix(1 0 0 1 125 282 )" />
  </g>
</svg>