<?xml version="1.0" encoding="utf-8"?>
<svg version="1.1" xmlns:xlink="http://www.w3.org/1999/xlink" width="32px" height="26px" xmlns="http://www.w3.org/2000/svg">
  <g transform="matrix(1 0 0 1 -32 -281 )">
    <path d="M 2.66666666666667 0  L 29.3333333333333 0  C 30.0666666666667 0  30.6944444444444 0.26519097222222  31.2166666666667 0.795572916666668  C 31.7388888888889 1.32595486111111  32 1.96354166666667  32 2.70833333333333  L 32 23.2916666666667  C 32 24.0364583333333  31.7388888888889 24.6740451388889  31.2166666666667 25.2044270833333  C 30.6944444444444 25.7348090277778  30.0666666666667 26  29.3333333333333 26  L 2.66666666666667 26  C 1.93333333333333 26  1.30555555555556 25.7348090277778  0.783333333333333 25.2044270833333  C 0.261111111111111 24.6740451388889  0 24.0364583333333  0 23.2916666666667  L 0 2.70833333333333  C 0 1.96354166666667  0.261111111111111 1.32595486111111  0.783333333333333 0.795572916666668  C 1.30555555555556 0.26519097222222  1.93333333333333 0  2.66666666666667 0  Z M 29.3333333333333 2.16666666666667  L 2.66666666666667 2.16666666666667  C 2.52222222222222 2.16666666666667  2.39722222222222 2.22026909722222  2.29166666666667 2.32747395833333  C 2.18611111111111 2.43467881944444  2.13333333333333 2.56163194444444  2.13333333333333 2.70833333333333  L 2.13333333333333 7  L 29.8666666666667 7  L 29.8666666666667 2.70833333333333  C 29.8666666666667 2.56163194444444  29.8138888888889 2.43467881944444  29.7083333333333 2.32747395833333  C 29.6027777777778 2.22026909722222  29.4777777777778 2.16666666666667  29.3333333333333 2.16666666666667  Z M 2.66666666666667 23.8333333333333  L 29.3333333333333 23.8333333333333  C 29.4777777777778 23.8333333333333  29.6027777777778 23.7797309027778  29.7083333333333 23.6725260416667  C 29.8138888888889 23.5653211805556  29.8666666666667 23.4383680555556  29.8666666666667 23.2916666666667  L 29.8666666666667 13  L 2.13333333333333 13  L 2.13333333333333 23.2916666666667  C 2.13333333333333 23.4383680555556  2.18611111111111 23.5653211805556  2.29166666666667 23.6725260416667  C 2.39722222222222 23.7797309027778  2.52222222222222 23.8333333333333  2.66666666666667 23.8333333333333  Z M 8.53333333333333 21.6666666666667  L 4.26666666666667 21.6666666666667  L 4.26666666666667 19.5  L 8.53333333333333 19.5  L 8.53333333333333 21.6666666666667  Z M 17.0666666666667 21.6666666666667  L 10.6666666666667 21.6666666666667  L 10.6666666666667 19.5  L 17.0666666666667 19.5  L 17.0666666666667 21.6666666666667  Z " fill-rule="nonzero" fill="#7f7f7f" stroke="none" transform="matrix(1 0 0 1 32 281 )" />
  </g>
</svg>