<?xml version="1.0" encoding="utf-8"?>
<svg version="1.1" xmlns:xlink="http://www.w3.org/1999/xlink" width="29px" height="32px" xmlns="http://www.w3.org/2000/svg">
  <g transform="matrix(1 0 0 1 -315 -277 )">
    <path d="M 6.03876201923077 29.0446428571429  C 6.47445913461538 28.5982142857143  6.69230769230769 28.0595238095238  6.69230769230769 27.4285714285714  C 6.69230769230769 26.7976190476191  6.47445913461538 26.2589285714286  6.03876201923077 25.8125  C 5.60306490384615 25.3660714285714  5.07732371794872 25.1428571428571  4.46153846153846 25.1428571428571  C 3.84575320512821 25.1428571428571  3.32001201923077 25.3660714285714  2.88431490384615 25.8125  C 2.44861778846154 26.2589285714286  2.23076923076923 26.7976190476191  2.23076923076923 27.4285714285714  C 2.23076923076923 28.0595238095238  2.44861778846154 28.5982142857143  2.88431490384615 29.0446428571429  C 3.32001201923077 29.4910714285714  3.84575320512821 29.7142857142857  4.46153846153846 29.7142857142857  C 5.07732371794872 29.7142857142857  5.60306490384615 29.4910714285714  6.03876201923077 29.0446428571429  Z M 12.7310697115385 29.0446428571429  C 13.1667668269231 28.5982142857143  13.3846153846154 28.0595238095238  13.3846153846154 27.4285714285714  C 13.3846153846154 26.7976190476191  13.1667668269231 26.2589285714286  12.7310697115385 25.8125  C 12.2953725961538 25.3660714285714  11.7696314102564 25.1428571428571  11.1538461538462 25.1428571428571  C 10.5380608974359 25.1428571428571  10.0123197115385 25.3660714285714  9.57662259615384 25.8125  C 9.14092548076923 26.2589285714286  8.92307692307692 26.7976190476191  8.92307692307692 27.4285714285714  C 8.92307692307692 28.0595238095238  9.14092548076923 28.5982142857143  9.57662259615384 29.0446428571429  C 10.0123197115385 29.4910714285714  10.5380608974359 29.7142857142857  11.1538461538462 29.7142857142857  C 11.7696314102564 29.7142857142857  12.2953725961538 29.4910714285714  12.7310697115385 29.0446428571429  Z M 6.03876201923077 22.1875  C 6.47445913461538 21.7410714285714  6.69230769230769 21.2023809523809  6.69230769230769 20.5714285714286  C 6.69230769230769 19.9404761904762  6.47445913461538 19.4017857142857  6.03876201923077 18.9553571428571  C 5.60306490384615 18.5089285714286  5.07732371794872 18.2857142857143  4.46153846153846 18.2857142857143  C 3.84575320512821 18.2857142857143  3.32001201923077 18.5089285714286  2.88431490384615 18.9553571428571  C 2.44861778846154 19.4017857142857  2.23076923076923 19.9404761904762  2.23076923076923 20.5714285714286  C 2.23076923076923 21.2023809523809  2.44861778846154 21.7410714285714  2.88431490384615 22.1875  C 3.32001201923077 22.6339285714286  3.84575320512821 22.8571428571429  4.46153846153846 22.8571428571429  C 5.07732371794872 22.8571428571429  5.60306490384615 22.6339285714286  6.03876201923077 22.1875  Z M 19.4233774038462 29.0446428571429  C 19.8590745192308 28.5982142857143  20.0769230769231 28.0595238095238  20.0769230769231 27.4285714285714  C 20.0769230769231 26.7976190476191  19.8590745192308 26.2589285714286  19.4233774038462 25.8125  C 18.9876802884615 25.3660714285714  18.4619391025641 25.1428571428571  17.8461538461538 25.1428571428571  C 17.2303685897436 25.1428571428571  16.7046274038462 25.3660714285714  16.2689302884615 25.8125  C 15.8332331730769 26.2589285714286  15.6153846153846 26.7976190476191  15.6153846153846 27.4285714285714  C 15.6153846153846 28.0595238095238  15.8332331730769 28.5982142857143  16.2689302884615 29.0446428571429  C 16.7046274038462 29.4910714285714  17.2303685897436 29.7142857142857  17.8461538461538 29.7142857142857  C 18.4619391025641 29.7142857142857  18.9876802884615 29.4910714285714  19.4233774038462 29.0446428571429  Z M 12.7310697115385 22.1875  C 13.1667668269231 21.7410714285714  13.3846153846154 21.2023809523809  13.3846153846154 20.5714285714286  C 13.3846153846154 19.9404761904762  13.1667668269231 19.4017857142857  12.7310697115385 18.9553571428571  C 12.2953725961538 18.5089285714286  11.7696314102564 18.2857142857143  11.1538461538462 18.2857142857143  C 10.5380608974359 18.2857142857143  10.0123197115385 18.5089285714286  9.57662259615384 18.9553571428571  C 9.14092548076923 19.4017857142857  8.92307692307692 19.9404761904762  8.92307692307692 20.5714285714286  C 8.92307692307692 21.2023809523809  9.14092548076923 21.7410714285714  9.57662259615384 22.1875  C 10.0123197115385 22.6339285714286  10.5380608974359 22.8571428571429  11.1538461538462 22.8571428571429  C 11.7696314102564 22.8571428571429  12.2953725961538 22.6339285714286  12.7310697115385 22.1875  Z M 6.03876201923077 15.3303571428571  C 6.47445913461538 14.8839285714286  6.69230769230769 14.3452380952381  6.69230769230769 13.7142857142857  C 6.69230769230769 13.0833333333333  6.47445913461538 12.5446428571429  6.03876201923077 12.0982142857143  C 5.60306490384615 11.6517857142857  5.07732371794872 11.4285714285714  4.46153846153846 11.4285714285714  C 3.84575320512821 11.4285714285714  3.32001201923077 11.6517857142857  2.88431490384615 12.0982142857143  C 2.44861778846154 12.5446428571429  2.23076923076923 13.0833333333333  2.23076923076923 13.7142857142857  C 2.23076923076923 14.3452380952381  2.44861778846154 14.8839285714286  2.88431490384615 15.3303571428571  C 3.32001201923077 15.7767857142857  3.84575320512821 16  4.46153846153846 16  C 5.07732371794872 16  5.60306490384615 15.7767857142857  6.03876201923077 15.3303571428571  Z M 19.4233774038462 22.1875  C 19.8590745192308 21.7410714285714  20.0769230769231 21.2023809523809  20.0769230769231 20.5714285714286  C 20.0769230769231 19.9404761904762  19.8590745192308 19.4017857142857  19.4233774038462 18.9553571428571  C 18.9876802884615 18.5089285714286  18.4619391025641 18.2857142857143  17.8461538461538 18.2857142857143  C 17.2303685897436 18.2857142857143  16.7046274038462 18.5089285714286  16.2689302884615 18.9553571428571  C 15.8332331730769 19.4017857142857  15.6153846153846 19.9404761904762  15.6153846153846 20.5714285714286  C 15.6153846153846 21.2023809523809  15.8332331730769 21.7410714285714  16.2689302884615 22.1875  C 16.7046274038462 22.6339285714286  17.2303685897436 22.8571428571429  17.8461538461538 22.8571428571429  C 18.4619391025641 22.8571428571429  18.9876802884615 22.6339285714286  19.4233774038462 22.1875  Z M 12.7310697115385 15.3303571428571  C 13.1667668269231 14.8839285714286  13.3846153846154 14.3452380952381  13.3846153846154 13.7142857142857  C 13.3846153846154 13.0833333333333  13.1667668269231 12.5446428571429  12.7310697115385 12.0982142857143  C 12.2953725961538 11.6517857142857  11.7696314102564 11.4285714285714  11.1538461538462 11.4285714285714  C 10.5380608974359 11.4285714285714  10.0123197115385 11.6517857142857  9.57662259615384 12.0982142857143  C 9.14092548076923 12.5446428571429  8.92307692307692 13.0833333333333  8.92307692307692 13.7142857142857  C 8.92307692307692 14.3452380952381  9.14092548076923 14.8839285714286  9.57662259615384 15.3303571428571  C 10.0123197115385 15.7767857142857  10.5380608974359 16  11.1538461538462 16  C 11.7696314102564 16  12.2953725961538 15.7767857142857  12.7310697115385 15.3303571428571  Z M 26.1069711538462 29.0357142857143  C 26.5484775641026 28.5833333333333  26.7692307692308 28.047619047619  26.7692307692308 27.4285714285714  L 26.7692307692308 20.5714285714286  C 26.7692307692308 19.9523809523809  26.5484775641026 19.4166666666667  26.1069711538462 18.9642857142857  C 25.6654647435897 18.5119047619048  25.1426282051282 18.2857142857143  24.5384615384615 18.2857142857143  C 23.9342948717949 18.2857142857143  23.4114583333333 18.5119047619048  22.9699519230769 18.9642857142857  C 22.5284455128205 19.4166666666667  22.3076923076923 19.9523809523809  22.3076923076923 20.5714285714286  L 22.3076923076923 27.4285714285714  C 22.3076923076923 28.047619047619  22.5284455128205 28.5833333333333  22.9699519230769 29.0357142857143  C 23.4114583333333 29.4880952380952  23.9342948717949 29.7142857142857  24.5384615384615 29.7142857142857  C 25.1426282051282 29.7142857142857  25.6654647435897 29.4880952380952  26.1069711538462 29.0357142857143  Z M 19.4233774038462 15.3303571428571  C 19.8590745192308 14.8839285714286  20.0769230769231 14.3452380952381  20.0769230769231 13.7142857142857  C 20.0769230769231 13.0833333333333  19.8590745192308 12.5446428571429  19.4233774038462 12.0982142857143  C 18.9876802884615 11.6517857142857  18.4619391025641 11.4285714285714  17.8461538461538 11.4285714285714  C 17.2303685897436 11.4285714285714  16.7046274038462 11.6517857142857  16.2689302884615 12.0982142857143  C 15.8332331730769 12.5446428571429  15.6153846153846 13.0833333333333  15.6153846153846 13.7142857142857  C 15.6153846153846 14.3452380952381  15.8332331730769 14.8839285714286  16.2689302884615 15.3303571428571  C 16.7046274038462 15.7767857142857  17.2303685897436 16  17.8461538461538 16  C 18.4619391025641 16  18.9876802884615 15.7767857142857  19.4233774038462 15.3303571428571  Z M 26.4381009615385 8.80357142857143  C 26.6588541666667 8.57738095238095  26.7692307692308 8.30952380952381  26.7692307692308 8  L 26.7692307692308 3.42857142857143  C 26.7692307692308 3.11904761904762  26.6588541666667 2.85119047619047  26.4381009615385 2.625  C 26.2173477564103 2.39880952380952  25.9559294871795 2.28571428571428  25.6538461538462 2.28571428571428  L 3.34615384615385 2.28571428571428  C 3.04407051282051 2.28571428571428  2.78265224358974 2.39880952380952  2.56189903846154 2.625  C 2.34114583333333 2.85119047619047  2.23076923076923 3.11904761904762  2.23076923076923 3.42857142857143  L 2.23076923076923 8  C 2.23076923076923 8.30952380952381  2.34114583333333 8.57738095238095  2.56189903846154 8.80357142857143  C 2.78265224358974 9.0297619047619  3.04407051282051 9.14285714285714  3.34615384615385 9.14285714285714  L 25.6538461538462 9.14285714285714  C 25.9559294871795 9.14285714285714  26.2173477564103 9.0297619047619  26.4381009615385 8.80357142857143  Z M 26.1156850961538 15.3303571428571  C 26.5513822115385 14.8839285714286  26.7692307692308 14.3452380952381  26.7692307692308 13.7142857142857  C 26.7692307692308 13.0833333333333  26.5513822115385 12.5446428571429  26.1156850961538 12.0982142857143  C 25.6799879807692 11.6517857142857  25.1542467948718 11.4285714285714  24.5384615384615 11.4285714285714  C 23.9226762820513 11.4285714285714  23.3969350961538 11.6517857142857  22.9612379807692 12.0982142857143  C 22.5255408653846 12.5446428571429  22.3076923076923 13.0833333333333  22.3076923076923 13.7142857142857  C 22.3076923076923 14.3452380952381  22.5255408653846 14.8839285714286  22.9612379807692 15.3303571428571  C 23.3969350961538 15.7767857142857  23.9226762820513 16  24.5384615384615 16  C 25.1542467948718 16  25.6799879807692 15.7767857142857  26.1156850961538 15.3303571428571  Z M 28.3377403846154 0.678571428571427  C 28.7792467948718 1.13095238095238  29 1.66666666666666  29 2.28571428571428  L 29 29.7142857142857  C 29 30.3333333333333  28.7792467948718 30.8690476190476  28.3377403846154 31.3214285714286  C 27.896233974359 31.7738095238095  27.3733974358974 32  26.7692307692308 32  L 2.23076923076923 32  C 1.62660256410256 32  1.10376602564103 31.7738095238095  0.662259615384615 31.3214285714286  C 0.220753205128205 30.8690476190476  0 30.3333333333333  0 29.7142857142857  L 0 2.28571428571428  C 0 1.66666666666666  0.220753205128205 1.13095238095238  0.662259615384615 0.678571428571427  C 1.10376602564103 0.226190476190478  1.62660256410256 0  2.23076923076923 0  L 26.7692307692308 0  C 27.3733974358974 0  27.896233974359 0.226190476190478  28.3377403846154 0.678571428571427  Z " fill-rule="nonzero" fill="#7f7f7f" stroke="none" transform="matrix(1 0 0 1 315 277 )" />
  </g>
</svg>