<?xml version="1.0" encoding="utf-8"?>
<svg version="1.1" xmlns:xlink="http://www.w3.org/1999/xlink" width="32px" height="26px" xmlns="http://www.w3.org/2000/svg">
  <g transform="matrix(1 0 0 1 -220 -280 )">
    <path d="M 9.96296296296296 22.9346590909091  C 10.4320987654321 22.4668560606061  10.6666666666667 21.9128787878788  10.6666666666667 21.2727272727273  C 10.6666666666667 20.6325757575758  10.4320987654321 20.0785984848485  9.96296296296296 19.6107954545455  C 9.49382716049383 19.1429924242424  8.93827160493827 18.9090909090909  8.2962962962963 18.9090909090909  C 7.65432098765432 18.9090909090909  7.09876543209877 19.1429924242424  6.62962962962963 19.6107954545455  C 6.16049382716049 20.0785984848485  5.92592592592593 20.6325757575758  5.92592592592593 21.2727272727273  C 5.92592592592593 21.9128787878788  6.16049382716049 22.4668560606061  6.62962962962963 22.9346590909091  C 7.09876543209877 23.4024621212121  7.65432098765432 23.6363636363636  8.2962962962963 23.6363636363636  C 8.93827160493827 23.6363636363636  9.49382716049383 23.4024621212121  9.96296296296296 22.9346590909091  Z M 3.55555555555556 11.2642045454545  L 3.55555555555556 11.8181818181818  L 10.6666666666667 11.8181818181818  L 10.6666666666667 7.09090909090909  L 7.74074074074074 7.09090909090909  C 7.58024691358025 7.09090909090909  7.44444444444444 7.14630681818182  7.33333333333333 7.25710227272727  L 3.72222222222222 10.8579545454545  C 3.61111111111111 10.96875  3.55555555555556 11.1041666666667  3.55555555555556 11.2642045454545  Z M 26.5555555555556 22.9346590909091  C 27.0246913580247 22.4668560606061  27.2592592592593 21.9128787878788  27.2592592592593 21.2727272727273  C 27.2592592592593 20.6325757575758  27.0246913580247 20.0785984848485  26.5555555555556 19.6107954545455  C 26.0864197530864 19.1429924242424  25.5308641975309 18.9090909090909  24.8888888888889 18.9090909090909  C 24.2469135802469 18.9090909090909  23.6913580246914 19.1429924242424  23.2222222222222 19.6107954545455  C 22.7530864197531 20.0785984848485  22.5185185185185 20.6325757575758  22.5185185185185 21.2727272727273  C 22.5185185185185 21.9128787878788  22.7530864197531 22.4668560606061  23.2222222222222 22.9346590909091  C 23.6913580246914 23.4024621212121  24.2469135802469 23.6363636363636  24.8888888888889 23.6363636363636  C 25.5308641975309 23.6363636363636  26.0864197530864 23.4024621212121  26.5555555555556 22.9346590909091  Z M 31.6481481481481 0.350852272727274  C 31.8827160493827 0.584753787878784  32 0.861742424242423  32 1.18181818181818  L 32 20.0909090909091  C 32 20.2755681818182  31.9753086419753 20.4386837121212  31.9259259259259 20.5802556818182  C 31.8765432098765 20.7218276515152  31.7932098765432 20.8357007575758  31.6759259259259 20.921875  C 31.5586419753086 21.0080492424242  31.4567901234568 21.0788352272727  31.3703703703704 21.1342329545455  C 31.283950617284 21.1896306818182  31.1388888888889 21.2265625  30.9351851851852 21.2450284090909  C 30.7314814814815 21.2634943181818  30.5925925925926 21.2758049242424  30.5185185185185 21.2819602272727  C 30.4444444444444 21.288115530303  30.287037037037 21.288115530303  30.0462962962963 21.2819602272727  C 29.8055555555556 21.2758049242424  29.6666666666667 21.2727272727273  29.6296296296296 21.2727272727273  C 29.6296296296296 22.5776515151515  29.1666666666667 23.6917613636364  28.2407407407407 24.6150568181818  C 27.3148148148148 25.5383522727273  26.1975308641975 26  24.8888888888889 26  C 23.5802469135803 26  22.462962962963 25.5383522727273  21.537037037037 24.6150568181818  C 20.6111111111111 23.6917613636364  20.1481481481481 22.5776515151515  20.1481481481481 21.2727272727273  L 13.037037037037 21.2727272727273  C 13.037037037037 22.5776515151515  12.5740740740741 23.6917613636364  11.6481481481481 24.6150568181818  C 10.7222222222222 25.5383522727273  9.60493827160494 26  8.2962962962963 26  C 6.98765432098766 26  5.87037037037037 25.5383522727273  4.94444444444444 24.6150568181818  C 4.01851851851852 23.6917613636364  3.55555555555556 22.5776515151515  3.55555555555556 21.2727272727273  L 2.37037037037037 21.2727272727273  C 2.33333333333333 21.2727272727273  2.19444444444444 21.2758049242424  1.9537037037037 21.2819602272727  C 1.71296296296296 21.288115530303  1.55555555555556 21.288115530303  1.48148148148148 21.2819602272727  C 1.40740740740741 21.2758049242424  1.26851851851852 21.2634943181818  1.06481481481481 21.2450284090909  C 0.861111111111111 21.2265625  0.71604938271605 21.1896306818182  0.62962962962963 21.1342329545455  C 0.54320987654321 21.0788352272727  0.441358024691358 21.0080492424242  0.324074074074074 20.921875  C 0.20679012345679 20.8357007575758  0.123456790123457 20.7218276515152  0.0740740740740741 20.5802556818182  C 0.0246913580246915 20.4386837121212  0 20.2755681818182  0 20.0909090909091  C 0 19.7708333333333  0.117283950617284 19.4938446969697  0.351851851851852 19.2599431818182  C 0.58641975308642 19.0260416666667  0.864197530864198 18.9090909090909  1.18518518518519 18.9090909090909  L 1.18518518518519 13  C 1.18518518518519 12.9015151515152  1.1820987654321 12.6860795454545  1.17592592592593 12.3536931818182  C 1.16975308641975 12.0213068181818  1.16975308641975 11.7874053030303  1.17592592592593 11.6519886363636  C 1.1820987654321 11.516571969697  1.19753086419753 11.3042140151515  1.22222222222222 11.0149147727273  C 1.24691358024691 10.725615530303  1.28703703703704 10.4978693181818  1.34259259259259 10.3316761363636  C 1.39814814814815 10.1654829545455  1.48456790123457 9.97774621212121  1.60185185185185 9.76846590909091  C 1.71913580246914 9.55918560606061  1.85802469135802 9.37452651515152  2.01851851851852 9.21448863636363  L 5.68518518518519 5.55823863636364  C 5.91975308641975 5.32433712121212  6.23148148148148 5.12736742424242  6.62037037037037 4.96732954545455  C 7.00925925925926 4.80729166666666  7.37037037037037 4.72727272727273  7.7037037037037 4.72727272727273  L 10.6666666666667 4.72727272727273  L 10.6666666666667 1.18181818181818  C 10.6666666666667 0.861742424242423  10.783950617284 0.584753787878784  11.0185185185185 0.350852272727274  C 11.2530864197531 0.116950757575755  11.5308641975309 0  11.8518518518519 0  L 30.8148148148148 0  C 31.1358024691358 0  31.4135802469136 0.116950757575755  31.6481481481481 0.350852272727274  Z " fill-rule="nonzero" fill="#7f7f7f" stroke="none" transform="matrix(1 0 0 1 220 280 )" />
  </g>
</svg>